<svg width="18" height="20" viewBox="0 0 18 20" fill="none" xmlns="http://www.w3.org/2000/svg">
    <g clip-path="url(#clip0_2_69)">
        <path fill-rule="evenodd" clip-rule="evenodd" d="M8.48035 0.136621C8.80198 -0.0448078 9.19798 -0.0448078 9.51914 0.136621C11.1083 1.03329 15.8906 3.73233 17.4803 4.629C17.802 4.80995 18 5.14519 18 5.50805C18 7.30138 18 12.699 18 14.4923C18 14.8552 17.802 15.1904 17.4803 15.3718C15.8911 16.2685 11.1088 18.9676 9.51914 19.8642C9.1975 20.0457 8.80151 20.0457 8.48035 19.8642C6.89114 18.9676 2.10884 16.2685 0.519157 15.3718C0.198 15.1904 0 14.8557 0 14.4928C0 12.6995 0 7.30185 0 5.50852C0 5.14566 0.198 4.81043 0.51963 4.629C2.10836 3.73233 6.89162 1.03329 8.48035 0.136621Z" fill="white"/>
        <path fill-rule="evenodd" clip-rule="evenodd" d="M0.144 14.9544C0.018 14.7849 0 14.6239 0 14.4073C0 12.6244 0 7.25775 0 5.47442C0 5.11346 0.197526 4.78013 0.518209 4.60013C2.10173 3.7087 6.86793 1.02537 8.45145 0.133467C8.77214 -0.0470087 9.2065 -0.0431992 9.52719 0.137277C11.1107 1.0287 15.8608 3.68918 17.4443 4.58061C17.5722 4.65299 17.6698 4.74013 17.757 4.85489L0.144 14.9544Z" fill="white"/>
        <path fill-rule="evenodd" clip-rule="evenodd" d="M8.99998 3.33347C12.6601 3.33347 15.6315 6.32061 15.6315 10.0001C15.6315 13.6797 12.6601 16.6668 8.99998 16.6668C5.33983 16.6668 2.36842 13.6797 2.36842 10.0001C2.36842 6.32061 5.33983 3.33347 8.99998 3.33347ZM8.99998 6.6668C10.8298 6.6668 12.3158 8.16013 12.3158 10.0001C12.3158 11.8397 10.8298 13.3335 8.99998 13.3335C7.17014 13.3335 5.6842 11.8397 5.6842 10.0001C5.6842 8.16013 7.16967 6.6668 8.99998 6.6668Z" fill="black"/>
        <path fill-rule="evenodd" clip-rule="evenodd" d="M17.756 4.85965C18.0004 5.08965 17.9957 5.43632 17.9957 5.70917C17.9957 7.51631 17.9805 12.6563 18 14.4635C18.0019 14.652 17.9398 14.8506 17.847 15.0001L8.80719 10.0001L17.756 4.85965Z" fill="white"/>
    </g>
    <defs>
        <clipPath id="clip0_2_69">
            <rect width="18" height="20" fill="white"/>
        </clipPath>
    </defs>
</svg>
